 <svg  version="1.0" xmlns="http://www.w3.org/2000/svg"  width="158.000000pt" height="156.000000pt" viewBox="0 0 158.000000 156.000000"  preserveAspectRatio="xMidYMid meet">  <g transform="translate(0.000000,156.000000) scale(0.100000,-0.100000)" fill="#6e9e3b" stroke="none"> <path d="M770 1534 c-218 -47 -369 -130 -511 -282 -132 -141 -210 -306 -243 -512 -4 -23 -1 -43 7 -55 13 -16 14 -15 9 13 -2 18 0 32 5 32 6 0 10 13 11 29 0 17 5 38 10 48 6 10 10 21 11 26 1 4 1 8 2 10 0 1 3 14 5 29 3 15 16 53 31 85 27 60 30 66 32 84 0 5 5 8 9 5 5 -3 9 1 9 8 0 46 171 238 270 303 32 21 60 40 63 43 3 3 16 11 29 18 19 11 22 11 15 0 -4 -7 1 -6 12 4 20 17 94 50 94 42 0 -3 8 0 19 5 22 12 76 24 113 25 14 1 24 4 22 7 -5 9 53 19 73 13 15 -5 16 -4 3 5 -12 9 -11 11 8 11 12 0 22 5 22 10 0 14 -52 11 -130 -6z"/> <path d="M1085 1530 c3 -5 17 -10 31 -10 14 0 39 -6 57 -13 18 -6 47 -12 65 -12 17 0 32 -2 32 -6 0 -4 8 -6 18 -4 9 1 29 -4 44 -11 15 -8 36 -14 46 -14 30 0 69 -36 77 -72 4 -18 9 -37 11 -43 28 -79 56 -298 50 -392 -7 -101 -25 -219 -39 -253 -5 -14 -11 -31 -13 -38 -6 -32 -49 -128 -62 -139 -7 -6 -13 -14 -12 -17 1 -10 -31 -69 -46 -84 -8 -7 -14 -17 -14 -21 0 -20 -194 -201 -216 -201 -4 0 -16 -8 -27 -18 -13 -11 -17 -12 -12 -3 5 8 -9 1 -31 -16 -34 -26 -120 -66 -149 -69 -5 0 -22 -6 -37 -12 -29 -12 -169 -39 -252 -49 -53 -6 -176 8 -291 34 -38 8 -74 16 -80 17 -5 1 -16 5 -24 10 -7 5 -26 10 -42 11 -29 3 -59 21 -59 36 0 4 -5 20 -12 36 -6 15 -13 37 -15 48 -2 11 -7 23 -12 28 -5 5 -5 22 -1 38 6 20 5 28 -3 26 -6 -1 -12 7 -13 19 -2 35 -26 125 -31 120 -19 -19 23 -259 59 -333 15 -31 63 -51 208 -83 110 -25 414 -28 512 -5 366 85 622 333 714 691 50 198 40 446 -28 663 -23 72 -24 73 -71 91 -119 45 -351 80 -332 50z"/> <path d="M635 1351 c-31 -13 -58 -48 -51 -66 3 -9 2 -13 -4 -10 -9 6 -14 -8 -11 -28 1 -5 1 -57 1 -115 -1 -59 -1 -114 -1 -123 0 -11 -11 -18 -29 -21 -16 -2 -27 -2 -25 2 2 3 -14 5 -35 5 -21 0 -37 -3 -34 -6 6 -11 -60 -5 -68 6 -5 6 -8 6 -8 -2 0 -12 -17 -12 -35 -1 -6 4 -17 3 -25 -3 -8 -5 -24 -9 -34 -9 -11 0 -32 -14 -47 -31 -27 -30 -28 -33 -28 -166 -1 -79 3 -142 10 -154 22 -43 82 -57 235 -55 116 1 144 4 157 18 10 9 17 20 17 24 0 4 7 14 15 23 7 9 28 31 45 50 27 30 30 32 30 12 0 -11 -3 -21 -8 -21 -4 0 -18 -18 -32 -40 -14 -22 -28 -40 -33 -40 -4 0 -5 -5 -2 -10 4 -6 -3 -27 -15 -47 -12 -21 -22 -51 -23 -69 -1 -18 -5 -30 -9 -27 -5 2 -8 -2 -8 -9 0 -7 -3 -47 -6 -89 -5 -70 -4 -78 18 -101 33 -36 86 -48 202 -43 55 2 112 4 126 4 20 1 22 3 10 11 -10 6 -11 10 -2 10 24 0 27 3 39 33 8 18 13 78 13 163 0 86 4 135 11 140 6 3 73 8 149 11 96 2 148 8 167 18 15 8 24 15 19 15 -5 0 -3 7 4 15 7 8 9 15 6 15 -4 0 -1 6 6 13 17 17 17 217 0 268 -19 55 -59 68 -212 68 -69 -1 -130 0 -136 0 -7 1 -12 45 -13 129 -3 190 -9 209 -70 230 -38 13 -245 15 -276 3z m283 -35 c28 -9 32 -32 32 -210 l0 -160 -52 -51 c-29 -27 -92 -76 -140 -108 -80 -53 -156 -128 -171 -169 -6 -16 -19 -17 -144 -12 -184 7 -199 10 -207 37 -10 38 -7 243 5 276 12 35 -4 33 227 36 l134 3 -1 154 c-1 85 3 166 8 181 10 25 14 26 88 29 105 4 197 1 221 -6z m376 -377 c26 -20 26 -22 26 -155 0 -183 11 -174 -207 -174 l-168 0 3 -161 c5 -220 14 -209 -173 -209 -137 0 -145 1 -159 22 -34 49 -9 192 56 322 28 56 82 116 196 218 28 26 62 68 74 95 13 26 26 50 30 53 3 3 71 6 151 7 133 2 148 0 171 -18z"/> <path d="M664 789 c-32 -17 -74 -45 -92 -63 -36 -33 -67 -84 -58 -94 3 -3 6 0 6 6 0 6 9 9 19 7 13 -2 29 8 48 32 45 57 55 67 107 106 60 45 48 47 -30 6z m-63 -76 c-18 -31 -35 -49 -53 -56 -12 -4 -15 -2 -11 8 3 8 9 12 14 9 5 -3 9 -1 9 5 0 9 39 51 47 51 2 0 -1 -8 -6 -17z"/> <path d="M759 654 c-18 -19 -33 -36 -31 -37 2 -1 -8 -27 -21 -57 -24 -55 -33 -76 -37 -95 -1 -5 -5 -14 -10 -20 -4 -5 -6 -22 -4 -37 1 -16 0 -28 -4 -28 -4 0 -8 -23 -8 -52 -1 -29 2 -45 6 -37 7 12 22 80 25 114 6 54 81 231 113 268 27 31 7 18 -29 -19z"/> </g> </svg> 